<svg width="40" height="40" viewBox="0 0 40 40" fill="none" xmlns="http://www.w3.org/2000/svg">
<path d="M9.2533 0.0587971C11.7716 0.0587973 14.1143 1.0588 15.8712 2.8235L21.2592 8.2353L21.4349 7.5294C21.9034 5.4706 23.0161 3.5882 24.656 2.1765C25.4759 1.5294 26.4129 0.999999 27.4085 0.588199C28.4627 0.235297 29.5168 -9.1647e-07 30.6296 -8.19188e-07C33.1479 -5.99031e-07 35.4905 1 37.2475 2.7647C39.0044 4.5294 40 6.9412 40 9.4118L40 23.4706L40 30.8823C40 31.0588 40 31.1765 40 31.3529C40 31.3529 40 31.353 40 31.4118C40 31.4706 40 31.5882 40 31.647L40 31.7059L40 31.7647C40 31.7647 40 31.7647 40 31.8236L40 31.8824L40 31.9412L40 32C40 32.0588 40 32.1765 39.9414 32.2353C39.9414 32.2941 39.9414 32.2941 39.9414 32.3529C39.9414 32.4118 39.9415 32.4706 39.8829 32.5294L39.8829 32.5883L39.8829 32.6471L39.8829 32.7059L39.8829 32.7647L39.8829 32.8235L39.8829 32.8824L39.8829 32.9412C39.8829 33 39.8828 33.0588 39.8243 33.0588C39.8243 33.0588 39.8243 33.0588 39.8243 33.1176C39.8243 33.1176 39.8243 33.1177 39.8243 33.1765C39.7657 33.2941 39.7657 33.4118 39.7072 33.5294C39.7072 33.5882 39.6486 33.6471 39.6486 33.6471C39.5901 33.8235 39.5315 34 39.4729 34.1765C39.4729 34.1765 39.4729 34.1765 39.4729 34.2353C39.4143 34.353 39.4144 34.4118 39.3558 34.5294L39.3558 34.5882C39.3558 34.5882 39.3558 34.6471 39.2972 34.6471C39.2972 34.7059 39.2386 34.7647 39.2386 34.8235C39.2386 34.8235 39.2386 34.8823 39.1801 34.8823C39.1801 34.8823 39.1801 34.9412 39.1215 34.9412C39.1215 35 39.063 35.0588 39.063 35.0588C39.063 35.0588 39.063 35.1176 39.0044 35.1176C39.0044 35.1176 39.0044 35.1765 38.9458 35.1765C38.8872 35.2941 38.8287 35.3529 38.7702 35.4706C38.3602 36.1176 37.8917 36.7647 37.3646 37.2941C37.0132 37.6471 36.6032 38 36.1347 38.3529C35.4905 38.8235 34.7877 39.1765 34.0264 39.4706C33.9093 39.5294 33.7921 39.5294 33.6749 39.5882L33.6164 39.5882C33.4993 39.6471 33.3821 39.6471 33.265 39.7059C33.265 39.7059 33.265 39.7059 33.2065 39.7059C33.0893 39.7647 32.9722 39.7647 32.8551 39.7647C32.1523 39.9412 31.4495 40 30.7467 40L16.8668 40L16.4569 40L9.3704 40C4.2167 40 3.70261e-07 35.7647 8.22803e-07 30.5882C1.04393e-06 28.0588 0.995702 25.7059 2.7526 23.9412C4.041 22.6471 5.6809 21.7647 7.4378 21.4118L8.1406 21.2353L2.7526 15.8235C-0.878396 12.1765 -0.878396 6.17649 2.7526 2.4706C4.39241 1.0588 6.735 0.0587968 9.2533 0.0587971ZM11.8887 6.8824C11.186 6.1765 10.2489 5.7647 9.2533 5.7647C8.2577 5.7647 7.3207 6.1765 6.6179 6.8824C5.9151 7.5882 5.5051 8.5294 5.5051 9.5294C5.5051 10.5294 5.9151 11.4706 6.6179 12.1765L15.9883 21.5882L21.2006 21.5882L21.2006 17.0588L21.2006 16.2941L13.1186 8.1765L11.8887 6.8824ZM34.3192 9.4706C34.3192 8.4706 33.9092 7.5294 33.2065 6.8236C32.5037 6.1177 31.5666 5.7059 30.571 5.7059C29.5754 5.7059 28.6384 6.1177 27.9356 6.8236C27.2328 7.5294 26.8229 8.4706 26.8229 9.4706L26.8229 30.9412C26.8229 31.8824 27.1743 32.8235 27.8771 33.5294L27.9356 33.5883C28.6384 34.2941 29.5754 34.7059 30.571 34.7059C30.6882 34.7059 30.8053 34.7059 30.9224 34.7059L30.981 34.7059C31.0395 34.7059 31.1567 34.7059 31.2738 34.6471C31.3909 34.6471 31.4495 34.5882 31.5666 34.5882C31.6837 34.5882 31.7423 34.5294 31.8009 34.5294C32.328 34.3529 32.7965 34 33.2065 33.5883C33.265 33.5294 33.3236 33.4706 33.3821 33.3529C33.7335 32.8824 33.9678 32.3529 34.0849 31.7647C34.0849 31.7059 34.0849 31.5883 34.1435 31.5294C34.1435 31.5294 34.1435 31.5294 34.1435 31.4706C34.1435 31.4706 34.1435 31.4118 34.1435 31.3529C34.1435 31.2941 34.1435 31.1765 34.1435 31.1177L34.1435 31.0588C34.1435 31 34.1435 31 34.1435 30.9412L34.3192 9.4706ZM9.2533 27.3529C8.2577 27.3529 7.3207 27.6471 6.6179 28.3529C5.9151 29.0588 5.5051 30 5.5051 31C5.5051 32 5.9151 32.9412 6.6179 33.6471C7.3207 34.3529 8.2577 34.7647 9.2533 34.7647L21.9619 34.7647L21.7863 34.2353C21.4349 33.2353 21.2592 32.1176 21.2592 31.0588L21.2592 27.3529L10.4832 27.3529L9.2533 27.3529Z" fill="white"/>
<rect x="36" y="36" width="11" height="32" transform="rotate(-180 36 36)" fill="white"/>
<rect x="27" y="37" width="22" height="11" transform="rotate(-180 27 37)" fill="white"/>
<rect x="19.4648" y="27.3486" width="25.2934" height="11" transform="rotate(-134.512 19.4648 27.3486)" fill="white"/>
</svg>
